<svg height="440pt" viewBox="0 0 440 440" width="440pt" xmlns="http://www.w3.org/2000/svg"><path d="m436 220c0 119.292969-96.707031 216-216 216s-216-96.707031-216-216 96.707031-216 216-216 216 96.707031 216 216zm0 0" fill="#0079a8"/><path d="m220 440c-121.3125 0-220-98.6875-220-220s98.6875-220 220-220 220 98.6875 220 220-98.6875 220-220 220zm0-432c-116.894531 0-212 95.105469-212 212s95.105469 212 212 212 212-95.105469 212-212-95.105469-212-212-212zm0 0" fill="#212a41"/><path d="m84 220c0-105.617188 75.824219-193.480469 176-212.238281-12.96875-2.433594-26.328125-3.761719-40-3.761719-119.296875 0-216 96.703125-216 216s96.703125 216 216 216c13.671875 0 27.03125-1.328125 40-3.761719-100.175781-18.757812-176-106.621093-176-212.238281zm0 0" fill="#005b8a"/><path d="m220 440c-121.3125 0-220-98.6875-220-220s98.6875-220 220-220c13.480469 0 27.183594 1.289062 40.734375 3.832031 1.898437.34375 3.265625 2 3.265625 3.929688 0 1.925781-1.367188 3.574219-3.265625 3.925781-100.085937 18.753906-172.734375 106.359375-172.734375 208.3125s72.648438 189.558594 172.734375 208.3125c1.890625.351562 3.265625 2 3.265625 3.925781 0 1.929688-1.367188 3.578125-3.265625 3.929688-13.550781 2.542969-27.253906 3.832031-40.734375 3.832031zm0-432c-116.894531 0-212 95.105469-212 212s95.105469 212 212 212c6.078125 0 12.199219-.273438 18.335938-.816406-92.921876-26.992188-158.335938-112.632813-158.335938-211.183594s65.414062-184.191406 158.335938-211.183594c-6.136719-.542968-12.257813-.816406-18.335938-.816406zm0 0" fill="#212a41"/><path d="m173.558594 418.550781c-.3125 0-.621094-.03125-.933594-.109375-92.21875-22.007812-156.625-103.609375-156.625-198.441406s64.40625-176.433594 156.625-198.449219c2.160156-.496093 4.3125.816407 4.824219 2.960938.511719 2.152343-.816407 4.3125-2.960938 4.824219-88.609375 21.152343-150.488281 99.550781-150.488281 190.664062s61.878906 169.511719 150.488281 190.664062c2.152344.511719 3.472657 2.671876 2.960938 4.824219-.441407 1.832031-2.082031 3.0625-3.890625 3.0625zm0 0" fill="#0079a8"/><path d="m220 4v432c119.296875 0 216-96.703125 216-216s-96.703125-216-216-216zm0 0" fill="#bed38e"/><path d="m220 440c-2.207031 0-4-1.792969-4-4v-432c0-2.207031 1.792969-4 4-4 121.3125 0 220 98.6875 220 220s-98.6875 220-220 220zm4-431.960938v423.921876c115.0625-2.136719 208-96.402344 208-211.960938s-92.9375-209.824219-208-211.960938zm0 0" fill="#212a41"/><path d="m236 423.367188c-2.0625 0-3.816406-1.589844-3.984375-3.679688-.175781-2.199219 1.472656-4.128906 3.671875-4.304688 101.113281-8.046874 180.3125-93.871093 180.3125-195.382812s-79.199219-187.335938-180.320312-195.375c-2.199219-.175781-3.847657-2.105469-3.671876-4.304688.175782-2.199218 2.121094-3.816406 4.304688-3.671874 105.246094 8.367187 187.6875 97.6875 187.6875 203.351562s-82.441406 194.984375-187.679688 203.351562c-.113281.007813-.214843.015626-.320312.015626zm0 0" fill="#a0b570"/><path d="m220 60v320c88.367188 0 160-71.632812 160-160s-71.632812-160-160-160zm0 0" fill="#f9ac2f"/><path d="m220 384c-2.207031 0-4-1.792969-4-4v-320c0-2.207031 1.792969-4 4-4 90.433594 0 164 73.566406 164 164s-73.566406 164-164 164zm4-319.953125v311.898437c84.175781-2.136718 152-71.273437 152-155.953124 0-84.679688-67.824219-153.808594-152-155.945313zm0 0" fill="#212a41"/><path d="m220 108v224c61.855469 0 112-50.144531 112-112s-50.144531-112-112-112zm0 0" fill="#db8e11"/><path d="m220 336c-2.207031 0-4-1.792969-4-4v-224c0-2.207031 1.792969-4 4-4 63.960938 0 116 52.039062 116 116s-52.039062 116-116 116zm4-223.929688v215.851563c57.703125-2.113281 104-49.714844 104-107.929687 0-58.214844-46.296875-105.808594-104-107.921876zm0 0" fill="#212a41"/><path d="m220 156v128c35.34375 0 64-28.65625 64-64s-28.65625-64-64-64zm0 0" fill="#d32e5e"/><path d="m220 288c-2.207031 0-4-1.792969-4-4v-128c0-2.207031 1.792969-4 4-4 37.496094 0 68 30.503906 68 68s-30.503906 68-68 68zm4-127.863281v119.734375c31.222656-2.0625 56-28.128906 56-59.863282 0-31.734374-24.777344-57.808593-56-59.871093zm0 0" fill="#212a41"/><path d="m220 84h-48c-8.839844 0-16 7.160156-16 16v3.152344c0 3.160156.9375 6.246094 2.6875 8.871094l13.3125 19.976562h-33.375c-4.242188 0-8.3125 1.6875-11.3125 4.6875l-6.625 6.625c-3 3-7.070312 4.6875-11.3125 4.6875h-25.375c-8.839844 0-16 7.160156-16 16v32c0 8.839844 7.160156 16 16 16h30.320312c9.464844 0 16.863282 8.175781 15.917969 17.59375l-4.476562 44.8125c-.945313 9.417969 6.453125 17.59375 15.917969 17.59375h4.433593c6.0625 0 11.597657-3.425781 14.3125-8.847656l32.964844-65.9375c1.714844-3.429688 2.609375-7.214844 2.609375-11.046875v-10.167969c0-4.414062 3.585938-8 8-8h16zm0 0" fill="#bed38e"/><path d="m146.113281 296h-4.433593c-5.640626 0-11.039063-2.398438-14.832032-6.574219-3.785156-4.1875-5.632812-9.800781-5.070312-15.417969l4.488281-44.816406c.34375-3.414062-.738281-6.695312-3.042969-9.246094-2.300781-2.554687-5.46875-3.945312-8.902344-3.945312h-30.320312c-11.023438 0-20-8.976562-20-20v-32c0-11.023438 8.976562-20 20-20h25.367188c3.207031 0 6.21875-1.246094 8.488281-3.511719l6.625-6.625c3.777343-3.773437 8.800781-5.855469 14.144531-5.855469h25.894531l-9.167969-13.75c-2.199218-3.296874-3.359374-7.128906-3.359374-11.097656v-3.160156c0-11.023438 8.976562-20 20-20h48c2.207031 0 4 1.792969 4 4v104c0 2.207031-1.792969 4-4 4h-16c-2.207032 0-4 1.792969-4 4v10.167969c0 4.441406-1.046876 8.871093-3.03125 12.839843l-32.960938 65.9375c-3.414062 6.824219-10.265625 11.054688-17.886719 11.054688zm-62.113281-144c-6.617188 0-12 5.382812-12 12v32c0 6.617188 5.382812 12 12 12h30.320312c5.640626 0 11.039063 2.398438 14.832032 6.574219 3.785156 4.1875 5.632812 9.800781 5.070312 15.417969l-4.488281 44.816406c-.34375 3.414062.738281 6.695312 3.042969 9.246094 2.300781 2.554687 5.46875 3.945312 8.902344 3.945312h4.433593c4.566407 0 8.679688-2.542969 10.726563-6.632812l32.96875-65.933594c1.429687-2.867188 2.183594-6.066406 2.183594-9.265625v-10.167969c0-6.617188 5.382812-12 12-12h12v-96h-43.992188c-6.617188 0-12 5.382812-12 12v3.160156c0 2.375.695312 4.679688 2.015625 6.65625l13.3125 19.96875c.816406 1.222656.894531 2.808594.199219 4.101563-.695313 1.296875-2.046875 2.113281-3.527344 2.113281h-33.367188c-3.207031 0-6.21875 1.246094-8.488281 3.511719l-6.625 6.625c-3.777343 3.773437-8.800781 5.855469-14.144531 5.855469h-25.375zm0 0" fill="#212a41"/><path d="m84 148c-8.839844 0-16 7.160156-16 16v32c0 8.839844 7.160156 16 16 16h.359375c.824219-22.382812 5.046875-43.863281 12.160156-64zm0 0" fill="#a0b570"/><path d="m84.359375 216c-11.382813 0-20.359375-8.976562-20.359375-20v-32c0-11.023438 8.976562-20 20-20h12.511719c1.296875 0 2.511719.632812 3.265625 1.6875.75 1.054688.933594 2.417969.503906 3.640625-7.128906 20.183594-11.144531 41.320313-11.9375 62.816406-.0625 2.152344-1.832031 3.855469-3.984375 3.855469zm-.359375-64c-6.617188 0-12 5.382812-12 12v32c0 5.425781 3.617188 10.015625 8.558594 11.503906 1.066406-18.917968 4.554687-37.542968 10.378906-55.503906zm0 0" fill="#212a41"/><path d="m184 308h-8c-5.214844 0-9.617188 3.351562-11.265625 8h-4.734375c-6.625 0-12 5.375-12 12s5.375 12 12 12h20c8.839844 0 16-7.160156 16-16v-4c0-6.625-5.375-12-12-12zm0 0" fill="#bed38e"/><path d="m180 344h-20c-8.824219 0-16-7.175781-16-16s7.175781-16 16-16h2.191406c2.824219-4.878906 8.066406-8 13.808594-8h8c8.824219 0 16 7.175781 16 16v4c0 11.023438-8.976562 20-20 20zm-20-24c-4.40625 0-8 3.59375-8 8s3.59375 8 8 8h20c6.617188 0 12-5.382812 12-12v-4c0-4.40625-3.59375-8-8-8h-8c-3.34375 0-6.359375 2.144531-7.496094 5.335938-.566406 1.59375-2.078125 2.664062-3.769531 2.664062zm0 0" fill="#212a41"/></svg>